<svg xmlns="http://www.w3.org/2000/svg" xml:space="preserve" id="tic-tac-toe" x="0" y="0" style="enable-background:new 0 0 128 128" version="1.1" viewBox="0 0 128 128">
  <path d="M66,66v46c0,1.1-0.9,2-2,2s-2-0.9-2-2V66H16c-1.1,0-2-0.9-2-2s0.9-2,2-2h46V16c0-1.1,0.9-2,2-2s2,0.9,2,2v46h46
	c1.1,0,2,0.9,2,2s-0.9,2-2,2H66z M47.41,80.59c-0.78-0.78-2.05-0.78-2.83,0L32,93.17L19.41,80.59c-0.78-0.78-2.05-0.78-2.83,0
	s-0.78,2.05,0,2.83L29.17,96l-12.59,12.59c-0.78,0.78-0.78,2.05,0,2.83c0.39,0.39,0.9,0.59,1.41,0.59s1.02-0.2,1.41-0.59L32,98.83
	l12.59,12.59c0.39,0.39,0.9,0.59,1.41,0.59s1.02-0.2,1.41-0.59c0.78-0.78,0.78-2.05,0-2.83L34.83,96l12.59-12.59
	C48.2,82.63,48.2,81.37,47.41,80.59z M80.59,47.41C80.98,47.8,81.49,48,82,48s1.02-0.2,1.41-0.59L96,34.83l12.59,12.59
	c0.39,0.39,0.9,0.59,1.41,0.59s1.02-0.2,1.41-0.59c0.78-0.78,0.78-2.05,0-2.83L98.83,32l12.59-12.59c0.78-0.78,0.78-2.05,0-2.83
	s-2.05-0.78-2.83,0L96,29.17L83.41,16.59c-0.78-0.78-2.05-0.78-2.83,0s-0.78,2.05,0,2.83L93.17,32L80.59,44.59
	C79.8,45.37,79.8,46.63,80.59,47.41z M14,32c0-9.92,8.08-18,18-18s18,8.08,18,18s-8.08,18-18,18S14,41.92,14,32z M18,32
	c0,7.72,6.28,14,14,14s14-6.28,14-14s-6.28-14-14-14S18,24.28,18,32z M114,96c0,9.92-8.08,18-18,18s-18-8.08-18-18s8.08-18,18-18
	S114,86.08,114,96z M110,96c0-7.72-6.28-14-14-14s-14,6.28-14,14s6.28,14,14,14S110,103.72,110,96z"></path>
</svg>
